<?xml version="1.0" standalone="no"?>
<!DOCTYPE svg PUBLIC "-//W3C//DTD SVG 20010904//EN"
 "http://www.w3.org/TR/2001/REC-SVG-20010904/DTD/svg10.dtd">
<svg version="1.0" xmlns="http://www.w3.org/2000/svg"
 width="246.000000pt" height="246.000000pt" viewBox="0 0 246.000000 246.000000"
 preserveAspectRatio="xMidYMid meet">
<metadata>
Created by potrace 1.11, written by Peter Selinger 2001-2013
</metadata>
<g transform="translate(0.000000,246.000000) scale(0.100000,-0.100000)"
fill="#000000" stroke="none">
<path d="M1200 2438 c-19 -11 -51 -30 -70 -41 -179 -100 -336 -192 -338 -199
-2 -4 -9 -8 -15 -8 -13 0 -180 -99 -188 -112 -3 -5 -9 -10 -12 -10 -13 1 -67
-23 -67 -29 0 -3 -18 -14 -40 -24 -22 -10 -40 -22 -40 -27 0 -4 -9 -8 -20 -8
-11 0 -20 -4 -20 -8 0 -5 -18 -16 -40 -26 -22 -10 -40 -22 -40 -27 0 -5 -3 -8
-7 -7 -13 3 -63 -25 -63 -34 0 -5 -4 -6 -10 -3 -5 3 -10 1 -10 -4 0 -6 -3 -10
-8 -9 -4 0 -15 -2 -24 -6 -17 -8 -18 -47 -18 -626 l0 -619 27 -14 c16 -8 114
-63 218 -124 105 -60 210 -121 235 -135 25 -14 83 -48 130 -75 47 -28 101 -60
120 -70 19 -11 80 -46 135 -78 55 -32 123 -71 152 -87 l52 -28 51 30 c28 17
55 30 60 30 6 0 10 5 10 10 0 6 4 10 9 10 5 0 76 39 158 86 81 48 164 96 183
107 19 10 160 91 313 179 l277 160 0 617 0 617 -32 19 c-56 34 -112 65 -138
78 -14 6 -27 14 -30 17 -13 14 -60 40 -60 33 0 -5 -4 -3 -8 2 -6 9 -208 129
-342 203 -25 14 -49 28 -55 32 -5 4 -30 19 -55 32 -25 14 -112 64 -194 112
-82 47 -150 86 -150 86 -1 0 -17 -10 -36 -22z"/>
</g>
</svg>
